# Blender 3.6.0
# www.blender.org
o Cube
v -1.000000 -1.000000 1.000000
v -0.463731 1.000000 0.463731
v -1.000000 -1.000000 -1.000000
v -0.463731 1.000000 -0.463731
v 1.000000 -1.000000 1.000000
v 0.463731 1.000000 0.463731
v 1.000000 -1.000000 -1.000000
v 0.463731 1.000000 -0.463731
v -1.000000 1.000000 1.000000
v -1.000000 1.000000 -1.000000
v 1.000000 1.000000 -1.000000
v 1.000000 1.000000 1.000000
v -0.463731 -1.000000 -0.463731
v 0.463731 -1.000000 -0.463731
v 0.463731 -1.000000 0.463731
v -0.463731 -1.000000 0.463731
vn -1.0000 -0.0000 -0.0000
vn -0.0000 -0.0000 -1.0000
vn 1.0000 -0.0000 -0.0000
vn -0.0000 -0.0000 1.0000
vn -0.0000 -1.0000 -0.0000
vn -0.0000 1.0000 -0.0000
vt 0.625000 0.000000
vt 0.375000 0.250000
vt 0.375000 0.000000
vt 0.625000 0.250000
vt 0.375000 0.500000
vt 0.625000 0.500000
vt 0.375000 0.750000
vt 0.625000 0.750000
vt 0.375000 1.000000
vt 0.125000 0.500000
vt 0.192034 0.567034
vt 0.125000 0.750000
vt 0.307966 0.682966
vt 0.875000 0.500000
vt 0.807966 0.682966
vt 0.807966 0.567034
vt 0.692034 0.567034
vt 0.692034 0.682966
vt 0.875000 0.750000
vt 0.000000 0.000000
vt 0.625000 1.000000
vt 0.192034 0.682966
vt 0.307966 0.567034
s 0
f 9/1/1 3/2/1 1/3/1
f 10/4/2 7/5/2 3/2/2
f 11/6/3 5/7/3 7/5/3
f 12/8/4 1/9/4 5/7/4
f 3/10/5 7/5/5 13/11/5
f 1/12/5 15/13/5 5/7/5
f 10/14/6 2/15/6 4/16/6
f 11/6/6 4/16/6 8/17/6
f 12/8/6 8/17/6 6/18/6
f 9/19/6 6/18/6 2/15/6
f 15/20/1 8/20/1 14/20/1
f 13/20/4 8/20/4 4/20/4
f 16/20/3 4/20/3 2/20/3
f 16/20/2 6/20/2 15/20/2
f 9/1/1 10/4/1 3/2/1
f 10/4/2 11/6/2 7/5/2
f 11/6/3 12/8/3 5/7/3
f 12/8/4 9/21/4 1/9/4
f 13/11/5 16/22/5 1/12/5
f 7/5/5 5/7/5 15/13/5
f 7/5/5 15/13/5 14/23/5
f 13/11/5 1/12/5 3/10/5
f 7/5/5 14/23/5 13/11/5
f 1/12/5 16/22/5 15/13/5
f 10/14/6 9/19/6 2/15/6
f 11/6/6 10/14/6 4/16/6
f 12/8/6 11/6/6 8/17/6
f 9/19/6 12/8/6 6/18/6
f 15/20/1 6/20/1 8/20/1
f 13/20/4 14/20/4 8/20/4
f 16/20/3 13/20/3 4/20/3
f 16/20/2 2/20/2 6/20/2
