# Blender 3.6.0
# www.blender.org
o Shelves1
v 0.000000 0.000000 0.000000
v 0.000000 0.000000 0.280000
v 0.000000 2.000000 0.280000
v 0.000000 2.000000 0.000000
v 0.030000 0.000000 0.000000
v 0.030000 0.000000 0.280000
v 0.030000 2.000000 0.280000
v 0.030000 2.000000 0.000000
v 0.970000 0.000000 0.000000
v 0.970000 0.000000 0.280000
v 0.970000 2.000000 0.280000
v 0.970000 2.000000 0.000000
v 1.000000 0.000000 0.000000
v 1.000000 0.000000 0.280000
v 1.000000 2.000000 0.280000
v 1.000000 2.000000 0.000000
v 0.030000 0.070000 0.000000
v 0.030000 0.070000 0.280000
v 0.030000 0.040000 0.280000
v 0.030000 0.040000 0.000000
v 0.970000 0.070000 0.000000
v 0.970000 0.070000 0.280000
v 0.970000 0.040000 0.280000
v 0.970000 0.040000 0.000000
v 0.030000 0.444000 0.000000
v 0.030000 0.444000 0.280000
v 0.030000 0.414000 0.280000
v 0.030000 0.414000 0.000000
v 0.970000 0.444000 0.000000
v 0.970000 0.444000 0.280000
v 0.970000 0.414000 0.280000
v 0.970000 0.414000 0.000000
v 0.030000 0.818000 0.000000
v 0.030000 0.818000 0.280000
v 0.030000 0.788000 0.280000
v 0.030000 0.788000 0.000000
v 0.970000 0.818000 0.000000
v 0.970000 0.818000 0.280000
v 0.970000 0.788000 0.280000
v 0.970000 0.788000 0.000000
v 0.030000 1.192000 0.000000
v 0.030000 1.192000 0.280000
v 0.030000 1.162000 0.280000
v 0.030000 1.162000 0.000000
v 0.970000 1.192000 0.000000
v 0.970000 1.192000 0.280000
v 0.970000 1.162000 0.280000
v 0.970000 1.162000 0.000000
v 0.030000 1.566000 0.000000
v 0.030000 1.566000 0.280000
v 0.030000 1.536000 0.280000
v 0.030000 1.536000 0.000000
v 0.970000 1.566000 0.000000
v 0.970000 1.566000 0.280000
v 0.970000 1.536000 0.280000
v 0.970000 1.536000 0.000000
v 0.030000 1.940000 0.000000
v 0.030000 1.940000 0.280000
v 0.030000 1.910000 0.280000
v 0.030000 1.910000 0.000000
v 0.970000 1.940000 0.000000
v 0.970000 1.940000 0.280000
v 0.970000 1.910000 0.280000
v 0.970000 1.910000 0.000000
vn -1.0000 -0.0000 -0.0000
vn 1.0000 -0.0000 -0.0000
vn -0.0000 -0.0000 -1.0000
vn -0.0000 -1.0000 -0.0000
vn -0.0000 1.0000 -0.0000
vn -0.0000 -0.0000 1.0000
s 0
f 2//1 4//1 1//1
f 8//2 6//2 5//2
f 4//3 5//3 1//3
f 5//4 2//4 1//4
f 3//5 8//5 4//5
f 6//6 3//6 2//6
f 10//1 12//1 9//1
f 16//2 14//2 13//2
f 12//3 13//3 9//3
f 13//4 10//4 9//4
f 11//5 16//5 12//5
f 14//6 11//6 10//6
f 20//1 18//1 17//1
f 22//2 24//2 21//2
f 21//3 20//3 17//3
f 18//5 21//5 17//5
f 24//4 19//4 20//4
f 19//6 22//6 18//6
f 28//1 26//1 25//1
f 30//2 32//2 29//2
f 29//3 28//3 25//3
f 26//5 29//5 25//5
f 32//4 27//4 28//4
f 27//6 30//6 26//6
f 36//1 34//1 33//1
f 38//2 40//2 37//2
f 37//3 36//3 33//3
f 34//5 37//5 33//5
f 40//4 35//4 36//4
f 35//6 38//6 34//6
f 44//1 42//1 41//1
f 46//2 48//2 45//2
f 45//3 44//3 41//3
f 42//5 45//5 41//5
f 48//4 43//4 44//4
f 43//6 46//6 42//6
f 52//1 50//1 49//1
f 54//2 56//2 53//2
f 53//3 52//3 49//3
f 50//5 53//5 49//5
f 56//4 51//4 52//4
f 51//6 54//6 50//6
f 60//1 58//1 57//1
f 62//2 64//2 61//2
f 61//3 60//3 57//3
f 58//5 61//5 57//5
f 64//4 59//4 60//4
f 59//6 62//6 58//6
f 2//1 3//1 4//1
f 8//2 7//2 6//2
f 4//3 8//3 5//3
f 5//4 6//4 2//4
f 3//5 7//5 8//5
f 6//6 7//6 3//6
f 10//1 11//1 12//1
f 16//2 15//2 14//2
f 12//3 16//3 13//3
f 13//4 14//4 10//4
f 11//5 15//5 16//5
f 14//6 15//6 11//6
f 20//1 19//1 18//1
f 22//2 23//2 24//2
f 21//3 24//3 20//3
f 18//5 22//5 21//5
f 24//4 23//4 19//4
f 19//6 23//6 22//6
f 28//1 27//1 26//1
f 30//2 31//2 32//2
f 29//3 32//3 28//3
f 26//5 30//5 29//5
f 32//4 31//4 27//4
f 27//6 31//6 30//6
f 36//1 35//1 34//1
f 38//2 39//2 40//2
f 37//3 40//3 36//3
f 34//5 38//5 37//5
f 40//4 39//4 35//4
f 35//6 39//6 38//6
f 44//1 43//1 42//1
f 46//2 47//2 48//2
f 45//3 48//3 44//3
f 42//5 46//5 45//5
f 48//4 47//4 43//4
f 43//6 47//6 46//6
f 52//1 51//1 50//1
f 54//2 55//2 56//2
f 53//3 56//3 52//3
f 50//5 54//5 53//5
f 56//4 55//4 51//4
f 51//6 55//6 54//6
f 60//1 59//1 58//1
f 62//2 63//2 64//2
f 61//3 64//3 60//3
f 58//5 62//5 61//5
f 64//4 63//4 59//4
f 59//6 63//6 62//6
