# Blender 3.6.0
# www.blender.org
o Stairs
v 0.000000 0.000000 0.000000
v 0.000000 0.140000 0.000000
v 0.500000 0.140000 0.000000
v 0.500000 0.000000 0.000000
v 0.000000 0.000000 -0.030000
v 0.000000 0.140000 -0.030000
v 0.500000 0.140000 -0.030000
v 0.500000 0.000000 -0.030000
v 0.500000 0.140000 -0.300000
v 0.500000 0.000000 -0.300000
v 0.000000 0.140000 0.030000
v 0.000000 0.140000 -0.300000
v 0.500000 0.140000 0.030000
v 0.000000 0.170000 0.030000
v 0.500000 0.170000 0.030000
v 0.000000 0.170000 -0.300000
v 0.000000 0.310000 -0.300000
v 0.500000 0.310000 -0.300000
v 0.500000 0.170000 -0.300000
v 0.000000 0.170000 -0.330000
v 0.000000 0.310000 -0.330000
v 0.500000 0.310000 -0.330000
v 0.500000 0.170000 -0.330000
v 0.500000 0.170000 -0.600000
v 0.000000 0.310000 -0.270000
v 0.000000 0.310000 -0.600000
v 0.500000 0.310000 -0.600000
v 0.500000 0.310000 -0.270000
v 0.000000 0.340000 -0.270000
v 0.000000 0.340000 -0.600000
v 0.500000 0.340000 -0.600000
v 0.500000 0.340000 -0.270000
v 0.000000 0.480000 -0.600000
v 0.500000 0.480000 -0.600000
v 0.000000 0.340000 -0.630000
v 0.000000 0.480000 -0.630000
v 0.500000 0.480000 -0.630000
v 0.500000 0.340000 -0.630000
v 0.500000 0.480000 -0.900000
v 0.500000 0.340000 -0.900000
v 0.000000 0.480000 -0.570000
v 0.000000 0.480000 -0.900000
v 0.500000 0.480000 -0.570000
v 0.000000 0.510000 -0.570000
v 0.000000 0.510000 -0.900000
v 0.500000 0.510000 -0.900000
v 0.500000 0.510000 -0.570000
v -0.500000 0.140000 0.000000
v -0.500000 0.000000 0.000000
v -0.500000 0.140000 -0.030000
v -0.500000 0.000000 -0.030000
v -0.500000 0.140000 -0.300000
v -0.500000 0.000000 -0.300000
v -0.500000 0.140000 0.030000
v -0.500000 0.170000 0.030000
v -0.500000 0.310000 -0.300000
v -0.500000 0.170000 -0.300000
v -0.500000 0.310000 -0.330000
v -0.500000 0.170000 -0.330000
v -0.500000 0.170000 -0.600000
v -0.500000 0.310000 -0.600000
v -0.500000 0.310000 -0.270000
v -0.500000 0.340000 -0.600000
v -0.500000 0.340000 -0.270000
v -0.500000 0.480000 -0.600000
v -0.500000 0.480000 -0.630000
v -0.500000 0.340000 -0.630000
v -0.500000 0.480000 -0.900000
v -0.500000 0.340000 -0.900000
v -0.500000 0.480000 -0.570000
v -0.500000 0.510000 -0.900000
v -0.500000 0.510000 -0.570000
vn -0.0000 -0.0000 1.0000
vn -0.0000 -0.0000 -1.0000
vn -0.0000 -1.0000 -0.0000
vn -0.0000 1.0000 -0.0000
vn -1.0000 -0.0000 -0.0000
vn 1.0000 -0.0000 -0.0000
s 0
f 4//1 2//1 1//1
f 6//2 8//2 5//2
f 5//3 4//3 1//3
f 3//4 6//4 2//4
f 2//5 5//5 1//5
f 8//6 3//6 4//6
f 10//6 7//6 8//6
f 12//3 13//3 11//3
f 15//4 16//4 14//4
f 13//1 14//1 11//1
f 16//2 9//2 12//2
f 9//6 15//6 13//6
f 19//1 17//1 16//1
f 21//2 23//2 20//2
f 20//3 19//3 16//3
f 18//4 21//4 17//4
f 17//5 20//5 16//5
f 23//6 18//6 19//6
f 24//6 22//6 23//6
f 26//3 28//3 25//3
f 32//4 30//4 29//4
f 28//1 29//1 25//1
f 30//2 27//2 26//2
f 27//6 32//6 28//6
f 31//1 33//1 30//1
f 36//2 38//2 35//2
f 35//3 31//3 30//3
f 34//4 36//4 33//4
f 33//5 35//5 30//5
f 38//6 34//6 31//6
f 40//6 37//6 38//6
f 42//3 43//3 41//3
f 47//4 45//4 44//4
f 43//1 44//1 41//1
f 45//2 39//2 42//2
f 39//6 47//6 43//6
f 2//1 49//1 1//1
f 51//2 6//2 5//2
f 49//3 5//3 1//3
f 6//4 48//4 2//4
f 48//5 51//5 49//5
f 50//5 53//5 51//5
f 54//3 12//3 11//3
f 16//4 55//4 14//4
f 14//1 54//1 11//1
f 52//2 16//2 12//2
f 55//5 52//5 54//5
f 17//1 57//1 16//1
f 59//2 21//2 20//2
f 57//3 20//3 16//3
f 21//4 56//4 17//4
f 56//5 59//5 57//5
f 58//5 60//5 59//5
f 62//3 26//3 25//3
f 30//4 64//4 29//4
f 29//1 62//1 25//1
f 61//2 30//2 26//2
f 64//5 61//5 62//5
f 33//1 63//1 30//1
f 67//2 36//2 35//2
f 63//3 35//3 30//3
f 36//4 65//4 33//4
f 65//5 67//5 63//5
f 66//5 69//5 67//5
f 70//3 42//3 41//3
f 45//4 72//4 44//4
f 44//1 70//1 41//1
f 68//2 45//2 42//2
f 72//5 68//5 70//5
f 4//1 3//1 2//1
f 6//2 7//2 8//2
f 5//3 8//3 4//3
f 3//4 7//4 6//4
f 2//5 6//5 5//5
f 8//6 7//6 3//6
f 10//6 9//6 7//6
f 12//3 9//3 13//3
f 15//4 19//4 16//4
f 13//1 15//1 14//1
f 16//2 19//2 9//2
f 9//6 19//6 15//6
f 19//1 18//1 17//1
f 21//2 22//2 23//2
f 20//3 23//3 19//3
f 18//4 22//4 21//4
f 17//5 21//5 20//5
f 23//6 22//6 18//6
f 24//6 27//6 22//6
f 26//3 27//3 28//3
f 32//4 31//4 30//4
f 28//1 32//1 29//1
f 30//2 31//2 27//2
f 27//6 31//6 32//6
f 31//1 34//1 33//1
f 36//2 37//2 38//2
f 35//3 38//3 31//3
f 34//4 37//4 36//4
f 33//5 36//5 35//5
f 38//6 37//6 34//6
f 40//6 39//6 37//6
f 42//3 39//3 43//3
f 47//4 46//4 45//4
f 43//1 47//1 44//1
f 45//2 46//2 39//2
f 39//6 46//6 47//6
f 2//1 48//1 49//1
f 51//2 50//2 6//2
f 49//3 51//3 5//3
f 6//4 50//4 48//4
f 48//5 50//5 51//5
f 50//5 52//5 53//5
f 54//3 52//3 12//3
f 16//4 57//4 55//4
f 14//1 55//1 54//1
f 52//2 57//2 16//2
f 55//5 57//5 52//5
f 17//1 56//1 57//1
f 59//2 58//2 21//2
f 57//3 59//3 20//3
f 21//4 58//4 56//4
f 56//5 58//5 59//5
f 58//5 61//5 60//5
f 62//3 61//3 26//3
f 30//4 63//4 64//4
f 29//1 64//1 62//1
f 61//2 63//2 30//2
f 64//5 63//5 61//5
f 33//1 65//1 63//1
f 67//2 66//2 36//2
f 63//3 67//3 35//3
f 36//4 66//4 65//4
f 65//5 66//5 67//5
f 66//5 68//5 69//5
f 70//3 68//3 42//3
f 45//4 71//4 72//4
f 44//1 72//1 70//1
f 68//2 71//2 45//2
f 72//5 71//5 68//5
